<?xml version="1.0" encoding="UTF-8"?>
<svg id="Capa_1" enable-background="new 0 0 512 512" height="512" viewBox="0 0 512 512" width="512"
     xmlns="http://www.w3.org/2000/svg">


    <path d="m226.143 174.795v72.159 6.275 150h60v-150-6.275-72.159z" fill="#06465e"/>
    <path d="m256 174.795v228.434h30.143v-150-6.275-72.159z" fill="#022b3a"/>
    <path d="m403.037 202.476v43.805h-39.967v25.368h39.967 24.949.419v-69.173z" fill="#06465e"/>

    <path d="m110.238 321.74v-43.805h39.968v-25.368h-39.968-24.948-.419v69.173z" fill="#06465e"/>
    <g fill="#cbe2b0">
        <circle cx="97.54" cy="265.086" r="18.667"/>
        <circle fill="#cbe2b0" cx="255.54" cy="190.086" r="20.667"/>
        <circle cx="415.54" cy="255.086" r="18.667"/>
        <path d="m434.277 151.817-6.821 15.752-2.619 6.049c2.934 2.568 4.799 6.33 4.799 10.526 0 7.72-6.28 14-14 14s-14-6.281-14-14c0-4.196 1.865-7.958 4.799-10.526l-2.619-6.049-6.821-15.752c-11.162 6.462-18.693 18.527-18.693 32.326 0 20.586 16.748 37.334 37.334 37.334s37.334-16.748 37.334-37.334c0-13.798-7.531-25.864-18.693-32.326z"
              fill="#cbe2b0"/>
        <path fill="#cbe2b0" d="m78.899 372.399 6.821-15.751 2.619-6.049c-2.934-2.568-4.799-6.33-4.799-10.526 0-7.72 6.28-14 14-14s14 6.281 14 14c0 4.196-1.865 7.958-4.799 10.526l2.619 6.049 6.821 15.751c11.162-6.462 18.693-18.527 18.693-32.326 0-20.586-16.748-37.334-37.334-37.334s-37.334 16.748-37.334 37.334c0 13.798 7.531 25.864 18.693 32.326z"/>
        <path d="m336.143 192.881h-160c-16.569 0-30-13.431-30-30v-60c0-16.569 13.431-30 30-30h160c16.569 0 30 13.431 30 30v60c0 16.569-13.431 30-30 30z"/>
    </g>
    <path d="m336.143 72.881h-80.143v120h80.143c16.568 0 30-13.431 30-30v-60c0-16.568-13.431-30-30-30z" fill="#cbe2b0"/>
    <path d="m336.143 353.295h-160c-16.569 0-30-13.431-30-30v-70c0-16.569 13.431-30 30-30h160c16.569 0 30 13.431 30 30v70c0 16.569-13.431 30-30 30z"
          fill="#cbe2b0"/>
    <path d="m336.143 223.295h-80.143v130h80.143c16.568 0 30-13.432 30-30v-70c0-16.568-13.431-30-30-30z"
          fill="#cbe2b0"/>
    <path d="m333.748 429.119h-154.11c-12.672 0-22.945-10.273-22.945-22.945 0-12.672 10.273-22.945 22.945-22.945h154.11c12.672 0 22.945 10.273 22.945 22.945-.001 12.672-10.273 22.945-22.945 22.945z"
          fill="#cbe2b0"/>
    <path d="m333.748 383.229h-77.748v45.89h77.748c12.672 0 22.945-10.273 22.945-22.945-.001-12.672-10.273-22.945-22.945-22.945z"
          fill="#cbe2b0"/>
    <circle cx="306.143" cy="132.881" fill="#06465e" r="27.5"/>
    <path d="m306.144 172.881c-22.056 0-40-17.944-40-40s17.944-40 40-40 40 17.944 40 40-17.945 40-40 40zm0-55c-8.271 0-15 6.729-15 15s6.729 15 15 15 15-6.729 15-15-6.729-15-15-15z"
          fill="#ffeadb"/>
    <circle cx="206.143" cy="132.881" fill="#06465e" r="27.5"/>

    <path d="m206.144 172.881c-22.056 0-40-17.944-40-40s17.944-40 40-40 40 17.944 40 40-17.945 40-40 40zm0-55c-8.271 0-15 6.729-15 15s6.729 15 15 15 15-6.729 15-15-6.729-15-15-15z"
          fill="#ffeadb"/>
    <text fill="#fff" x="270" y="320" font-size="80" font-family="Helvetica,Arial,Sans" font-weight="bold" text-anchor="middle">MR.</text>
    <text fill="#fff" x="260" y="420" font-size="30" font-family="Helvetica,Arial,Sans" font-weight="bold" text-anchor="middle">ASSISTANT</text>
</svg>